<svg xmlns="http://www.w3.org/2000/svg" viewBox="0 0 130.41318 35.826534"><g transform="matrix(1.25 0 0 -1.25 116.62 87.58)"><path d="M11.032 60.083c.098 5.412-4.216 9.882-9.63 9.98-5.417.095-9.886-4.22-9.982-9.632-.033-1.735.393-3.373 1.16-4.803l2.348 3.653H.536l-4.998-7.018c1.556-1.11 3.453-1.778 5.507-1.816 5.416-.095 9.89 4.22 9.987 9.637" fill="#cd1556"/><path d="M-54.94 50.316c0-.444-.035-.89-.103-1.33l-13.053.04c.287-.934.816-1.688 1.595-2.257.776-.572 1.656-.858 2.634-.863 1.356-.003 2.482.516 3.375 1.56l3.687-2.633s-2.38-3.447-7.08-3.43c-2.512.006-4.63.874-6.347 2.6-1.72 1.728-2.574 3.847-2.57 6.356.01 2.49.884 4.59 2.628 6.307 1.742 1.715 3.858 2.568 6.35 2.56 2.49-.008 4.596-.874 6.316-2.6 1.72-1.724 2.575-3.83 2.567-6.31m-5.033 2.056c-.817 1.56-2.106 2.343-3.865 2.348-1.78.008-3.082-.767-3.913-2.324l7.777-.023zM-15.97 50.316c0-.444-.037-.89-.105-1.33l-13.05.04c.284-.934.815-1.688 1.594-2.257.776-.572 1.654-.858 2.632-.863 1.357-.003 2.483.516 3.377 1.56l3.685-2.633s-2.38-3.447-7.078-3.43c-2.512.006-4.63.874-6.35 2.6-1.72 1.728-2.575 3.847-2.566 6.356.01 2.49.883 4.59 2.627 6.307 1.74 1.715 3.858 2.568 6.35 2.56 2.49-.008 4.597-.874 6.317-2.6s2.575-3.83 2.567-6.31m-5.033 2.056c-.82 1.56-2.108 2.343-3.865 2.348-1.78.008-3.085-.767-3.913-2.324l7.777-.023zM-35.47 50.39c0-2.487-.865-4.6-2.59-6.333-1.724-1.736-3.834-2.602-6.325-2.602-2.516 0-4.635.863-6.36 2.58-1.723 1.724-2.587 3.84-2.587 6.35 0 2.486.867 4.593 2.603 6.314 1.738 1.722 3.85 2.582 6.345 2.582 1.58 0 3.047-.38 4.406-1.136v10.216h4.51v-17.97zm-4.51-.004c0 1.196-.432 2.227-1.302 3.092-.868.865-1.902 1.297-3.103 1.297-1.226 0-2.27-.425-3.138-1.28-.87-.854-1.302-1.89-1.302-3.11s.433-2.262 1.302-3.127c.867-.865 1.912-1.297 3.138-1.297 1.223 0 2.264.433 3.12 1.298.857.865 1.286 1.907 1.286 3.128M-74.136 48.967c0-1-.216-1.954-.65-2.857-.435-.9-1.042-1.695-1.82-2.386-.78-.688-1.704-1.24-2.77-1.65-1.07-.412-2.248-.618-3.538-.618-1.16 0-2.2.068-3.12.2-.925.134-1.794.345-2.606.634-.812.29-1.593.663-2.337 1.118s-1.52 1.007-2.32 1.653l3.67 3.706c1.07-.89 2.116-1.52 3.14-1.885 1.023-.365 2.136-.55 3.338-.55.488 0 .952.07 1.386.215.434.145.812.34 1.137.586.322.246.578.535.765.87.19.332.285.7.285 1.1 0 .422-.08.8-.234 1.136-.157.333-.434.656-.837.966-.4.31-.955.63-1.667.953-.712.322-1.626.684-2.738 1.084-.98.357-1.92.76-2.82 1.22-.902.454-1.69 1.005-2.37 1.65-.68.647-1.225 1.4-1.634 2.27-.415.87-.62 1.89-.62 3.072 0 1.136.23 2.18.685 3.135.455.96 1.077 1.776 1.868 2.456.79.677 1.713 1.205 2.772 1.586 1.053.376 2.195.566 3.42.566 2.048 0 3.77-.267 5.174-.8 1.4-.537 2.65-1.316 3.74-2.338l-3.606-3.64c-.668.646-1.414 1.142-2.238 1.486-.822.344-1.79.518-2.902.518-.514 0-.985-.078-1.42-.236-.433-.155-.807-.36-1.118-.616-.31-.254-.564-.554-.75-.9-.19-.348-.286-.708-.286-1.085 0-.424.09-.807.27-1.15.177-.347.48-.68.9-1.002.42-.323.985-.647 1.685-.97.7-.322 1.574-.672 2.62-1.05 1.334-.468 2.482-.982 3.44-1.538.955-.556 1.735-1.166 2.335-1.833.6-.67 1.046-1.42 1.336-2.254.288-.835.434-1.775.434-2.82M5.568 42.617c-.44-.44-.967-.66-1.59-.66-.62 0-1.147.22-1.584.66-.433.436-.65.968-.65 1.59 0 .617.22 1.145.656 1.582.436.433.962.653 1.578.653.623 0 1.15-.22 1.59-.654.438-.437.655-.964.655-1.583 0-.62-.217-1.15-.655-1.59m-2.95 2.95c-.374-.374-.562-.83-.562-1.363 0-.537.188-.997.56-1.373.374-.38.83-.567 1.362-.567.536 0 .992.188 1.365.568.375.377.563.837.563 1.374 0 .534-.188.99-.563 1.363-.375.38-.83.57-1.365.57-.53 0-.985-.19-1.36-.57m1.32-.122c.304 0 .526-.03.67-.09.255-.106.383-.313.383-.623 0-.22-.08-.38-.242-.485-.085-.056-.2-.095-.354-.12.192-.03.334-.11.42-.24.09-.13.136-.257.136-.382v-.18c0-.056 0-.12.007-.182.004-.066.01-.11.02-.13l.016-.03h-.407c0 .008-.004.016-.006.023 0 .01-.002.018-.004.028l-.01.08v.194c0 .286-.078.472-.232.563-.092.054-.252.08-.484.08h-.34v-.966h-.435v2.46h.862zm.468-.388c-.11.06-.285.09-.526.09h-.37v-.892H3.9c.183 0 .32.02.41.057.173.067.256.194.256.384 0 .178-.054.3-.162.36" fill="#404041"/><path d="M.703 41.956H-5.17l-3.07 5.14-3.173-5.14h-5.943l6.41 8.98-5.74 8.344h5.673l2.938-4.673 8.778-12.65z" fill="#404041"/></g></svg>